<mxfile host="app.diagrams.net" agent="Mozilla/5.0 (Windows NT 10.0; Win64; x64) AppleWebKit/537.36 (KHTML, like Gecko) Chrome/128.0.0.0 Safari/537.36" version="25.0.3">
  <diagram name="Page-1" id="gzj0BJjAy3UwrrP3rGQK">
    <mxGraphModel grid="1" page="1" gridSize="10" guides="1" tooltips="1" connect="1" arrows="1" fold="1" pageScale="1" pageWidth="850" pageHeight="1100" math="0" shadow="0">
      <root>
        <mxCell id="0" />
        <mxCell id="1" parent="0" />
        <mxCell id="cD0qKmsjnFo0KxT0CRgl-1" value="" style="shape=cube;whiteSpace=wrap;html=1;boundedLbl=1;backgroundOutline=1;darkOpacity=0.05;darkOpacity2=0.1;flipH=1;size=10;strokeColor=default;" vertex="1" parent="1">
          <mxGeometry x="310" y="40" width="230" height="280" as="geometry" />
        </mxCell>
        <mxCell id="cD0qKmsjnFo0KxT0CRgl-2" value="Azure" style="text;html=1;align=center;verticalAlign=middle;resizable=0;points=[];autosize=1;strokeColor=none;fillColor=none;" vertex="1" parent="1">
          <mxGeometry x="400" y="50" width="50" height="30" as="geometry" />
        </mxCell>
        <mxCell id="cD0qKmsjnFo0KxT0CRgl-3" value="" style="edgeStyle=orthogonalEdgeStyle;rounded=0;orthogonalLoop=1;jettySize=auto;html=1;entryX=1;entryY=0.857;entryDx=0;entryDy=0;entryPerimeter=0;endArrow=none;endFill=0;" edge="1" parent="1" source="cD0qKmsjnFo0KxT0CRgl-4" target="cD0qKmsjnFo0KxT0CRgl-1">
          <mxGeometry relative="1" as="geometry" />
        </mxCell>
        <mxCell id="cD0qKmsjnFo0KxT0CRgl-4" value="" style="ellipse;whiteSpace=wrap;html=1;aspect=fixed;" vertex="1" parent="1">
          <mxGeometry x="240" y="270" width="20" height="20" as="geometry" />
        </mxCell>
        <mxCell id="cD0qKmsjnFo0KxT0CRgl-5" value="HTTPS" style="text;html=1;align=center;verticalAlign=middle;resizable=0;points=[];autosize=1;strokeColor=none;fillColor=none;" vertex="1" parent="1">
          <mxGeometry x="220" y="285" width="60" height="30" as="geometry" />
        </mxCell>
        <mxCell id="cD0qKmsjnFo0KxT0CRgl-6" value="" style="shape=cube;whiteSpace=wrap;html=1;boundedLbl=1;backgroundOutline=1;darkOpacity=0.05;darkOpacity2=0.1;flipH=1;size=10;strokeColor=default;" vertex="1" parent="1">
          <mxGeometry x="40" y="210" width="140" height="110" as="geometry" />
        </mxCell>
        <mxCell id="cD0qKmsjnFo0KxT0CRgl-7" value="Browser" style="rounded=0;whiteSpace=wrap;html=1;" vertex="1" parent="1">
          <mxGeometry x="50" y="250" width="110" height="60" as="geometry" />
        </mxCell>
        <mxCell id="cD0qKmsjnFo0KxT0CRgl-8" value="Client" style="text;html=1;align=center;verticalAlign=middle;resizable=0;points=[];autosize=1;strokeColor=none;fillColor=none;" vertex="1" parent="1">
          <mxGeometry x="80" y="220" width="50" height="30" as="geometry" />
        </mxCell>
        <mxCell id="cD0qKmsjnFo0KxT0CRgl-9" value="" style="edgeStyle=orthogonalEdgeStyle;rounded=0;orthogonalLoop=1;jettySize=auto;html=1;dashed=1;dashPattern=8 8;exitX=1;exitY=0.5;exitDx=0;exitDy=0;" edge="1" parent="1">
          <mxGeometry relative="1" as="geometry">
            <mxPoint x="160" y="279.79999999999995" as="sourcePoint" />
            <mxPoint x="240" y="279.79999999999995" as="targetPoint" />
          </mxGeometry>
        </mxCell>
        <mxCell id="cD0qKmsjnFo0KxT0CRgl-10" value="use" style="edgeLabel;html=1;align=center;verticalAlign=middle;resizable=0;points=[];" connectable="0" vertex="1" parent="cD0qKmsjnFo0KxT0CRgl-9">
          <mxGeometry x="-0.3573" y="1" relative="1" as="geometry">
            <mxPoint x="16" y="-9" as="offset" />
          </mxGeometry>
        </mxCell>
        <mxCell id="cD0qKmsjnFo0KxT0CRgl-11" value="" style="shape=cube;whiteSpace=wrap;html=1;boundedLbl=1;backgroundOutline=1;darkOpacity=0.05;darkOpacity2=0.1;flipH=1;size=10;strokeColor=default;" vertex="1" parent="1">
          <mxGeometry x="40" y="50" width="140" height="110" as="geometry" />
        </mxCell>
        <mxCell id="cD0qKmsjnFo0KxT0CRgl-12" value="ChirpWeb.dll" style="rounded=0;whiteSpace=wrap;html=1;" vertex="1" parent="1">
          <mxGeometry x="50" y="90" width="110" height="60" as="geometry" />
        </mxCell>
        <mxCell id="cD0qKmsjnFo0KxT0CRgl-13" value="Developer" style="text;html=1;align=center;verticalAlign=middle;resizable=0;points=[];autosize=1;strokeColor=none;fillColor=none;" vertex="1" parent="1">
          <mxGeometry x="65" y="60" width="80" height="30" as="geometry" />
        </mxCell>
        <mxCell id="cD0qKmsjnFo0KxT0CRgl-14" style="edgeStyle=orthogonalEdgeStyle;rounded=0;orthogonalLoop=1;jettySize=auto;html=1;exitX=1;exitY=0.5;exitDx=0;exitDy=0;" edge="1" parent="1">
          <mxGeometry relative="1" as="geometry">
            <mxPoint x="160" y="119.73000000000002" as="sourcePoint" />
            <mxPoint x="310" y="119.73000000000002" as="targetPoint" />
            <Array as="points" />
          </mxGeometry>
        </mxCell>
        <mxCell id="cD0qKmsjnFo0KxT0CRgl-15" value="&amp;lt;&amp;lt;deploy&amp;gt;&amp;gt;" style="edgeLabel;html=1;align=center;verticalAlign=middle;resizable=0;points=[];" connectable="0" vertex="1" parent="cD0qKmsjnFo0KxT0CRgl-14">
          <mxGeometry x="0.1005" relative="1" as="geometry">
            <mxPoint x="-13" y="-10" as="offset" />
          </mxGeometry>
        </mxCell>
        <mxCell id="cD0qKmsjnFo0KxT0CRgl-16" value="" style="edgeStyle=orthogonalEdgeStyle;rounded=0;orthogonalLoop=1;jettySize=auto;html=1;endArrow=classic;endFill=1;" edge="1" parent="1" source="cD0qKmsjnFo0KxT0CRgl-18" target="cD0qKmsjnFo0KxT0CRgl-19">
          <mxGeometry relative="1" as="geometry" />
        </mxCell>
        <mxCell id="cD0qKmsjnFo0KxT0CRgl-17" value="use" style="edgeLabel;html=1;align=center;verticalAlign=middle;resizable=0;points=[];" connectable="0" vertex="1" parent="cD0qKmsjnFo0KxT0CRgl-16">
          <mxGeometry x="-0.165" y="2" relative="1" as="geometry">
            <mxPoint x="13" y="1" as="offset" />
          </mxGeometry>
        </mxCell>
        <mxCell id="cD0qKmsjnFo0KxT0CRgl-18" value="&lt;div style=&quot;line-height: 150%;&quot;&gt;&amp;lt;&amp;lt;webserver&amp;gt;&amp;gt;&lt;div&gt;Server&lt;/div&gt;&lt;/div&gt;" style="rounded=0;whiteSpace=wrap;html=1;" vertex="1" parent="1">
          <mxGeometry x="370" y="90" width="110" height="60" as="geometry" />
        </mxCell>
        <mxCell id="cD0qKmsjnFo0KxT0CRgl-19" value="&lt;div style=&quot;line-height: 150%;&quot;&gt;&lt;font style=&quot;font-size: 10px;&quot;&gt;&amp;lt;&amp;lt;SQLite Database&amp;gt;&amp;gt;&lt;/font&gt;&lt;div&gt;Database&lt;/div&gt;&lt;/div&gt;" style="rounded=0;whiteSpace=wrap;html=1;" vertex="1" parent="1">
          <mxGeometry x="370" y="200" width="110" height="60" as="geometry" />
        </mxCell>
        <mxCell id="cD0qKmsjnFo0KxT0CRgl-20" value="" style="shape=cube;whiteSpace=wrap;html=1;boundedLbl=1;backgroundOutline=1;darkOpacity=0.05;darkOpacity2=0.1;flipH=1;size=10;strokeColor=default;" vertex="1" parent="1">
          <mxGeometry x="630" y="40" width="160" height="140" as="geometry" />
        </mxCell>
        <mxCell id="cD0qKmsjnFo0KxT0CRgl-21" value="GitHub" style="text;html=1;align=center;verticalAlign=middle;resizable=0;points=[];autosize=1;strokeColor=none;fillColor=none;" vertex="1" parent="1">
          <mxGeometry x="675" y="50" width="60" height="30" as="geometry" />
        </mxCell>
        <mxCell id="cD0qKmsjnFo0KxT0CRgl-22" value="&lt;div style=&quot;line-height: 150%;&quot;&gt;&amp;lt;&amp;lt;authentication&amp;gt;&amp;gt;&lt;/div&gt;&lt;div style=&quot;line-height: 150%;&quot;&gt;OAuth&lt;/div&gt;" style="rounded=0;whiteSpace=wrap;html=1;" vertex="1" parent="1">
          <mxGeometry x="650" y="90" width="110" height="60" as="geometry" />
        </mxCell>
        <mxCell id="cD0qKmsjnFo0KxT0CRgl-23" value="" style="edgeStyle=orthogonalEdgeStyle;rounded=0;orthogonalLoop=1;jettySize=auto;html=1;entryX=1;entryY=0.857;entryDx=0;entryDy=0;entryPerimeter=0;endArrow=none;endFill=0;" edge="1" parent="1" source="cD0qKmsjnFo0KxT0CRgl-24">
          <mxGeometry relative="1" as="geometry">
            <mxPoint x="630" y="120" as="targetPoint" />
          </mxGeometry>
        </mxCell>
        <mxCell id="cD0qKmsjnFo0KxT0CRgl-24" value="" style="ellipse;whiteSpace=wrap;html=1;aspect=fixed;" vertex="1" parent="1">
          <mxGeometry x="575" y="110" width="20" height="20" as="geometry" />
        </mxCell>
        <mxCell id="cD0qKmsjnFo0KxT0CRgl-25" value="" style="edgeStyle=orthogonalEdgeStyle;rounded=0;orthogonalLoop=1;jettySize=auto;html=1;dashed=1;dashPattern=8 8;exitX=1;exitY=0.5;exitDx=0;exitDy=0;entryX=0;entryY=0.5;entryDx=0;entryDy=0;" edge="1" parent="1" target="cD0qKmsjnFo0KxT0CRgl-24">
          <mxGeometry relative="1" as="geometry">
            <mxPoint x="480" y="119.79999999999995" as="sourcePoint" />
            <mxPoint x="560" y="119.79999999999995" as="targetPoint" />
          </mxGeometry>
        </mxCell>
        <mxCell id="cD0qKmsjnFo0KxT0CRgl-26" value="use" style="edgeLabel;html=1;align=center;verticalAlign=middle;resizable=0;points=[];" connectable="0" vertex="1" parent="cD0qKmsjnFo0KxT0CRgl-25">
          <mxGeometry x="-0.3573" y="1" relative="1" as="geometry">
            <mxPoint y="-9" as="offset" />
          </mxGeometry>
        </mxCell>
        <mxCell id="cD0qKmsjnFo0KxT0CRgl-27" value="HTTPS" style="text;html=1;align=center;verticalAlign=middle;resizable=0;points=[];autosize=1;strokeColor=none;fillColor=none;" vertex="1" parent="1">
          <mxGeometry x="555" y="130" width="60" height="30" as="geometry" />
        </mxCell>
        <mxCell id="cD0qKmsjnFo0KxT0CRgl-28" value="" style="rounded=0;whiteSpace=wrap;html=1;" vertex="1" parent="1">
          <mxGeometry x="585" y="200" width="200" height="240" as="geometry" />
        </mxCell>
        <mxCell id="cD0qKmsjnFo0KxT0CRgl-29" value="Legend" style="text;html=1;align=center;verticalAlign=middle;resizable=0;points=[];autosize=1;strokeColor=none;fillColor=none;" vertex="1" parent="1">
          <mxGeometry x="655" y="210" width="60" height="30" as="geometry" />
        </mxCell>
        <mxCell id="cD0qKmsjnFo0KxT0CRgl-30" value="" style="shape=cube;whiteSpace=wrap;html=1;boundedLbl=1;backgroundOutline=1;darkOpacity=0.05;darkOpacity2=0.1;flipH=1;size=10;strokeColor=default;" vertex="1" parent="1">
          <mxGeometry x="595" y="245" width="60" height="60" as="geometry" />
        </mxCell>
        <mxCell id="cD0qKmsjnFo0KxT0CRgl-31" value="Device" style="text;html=1;align=center;verticalAlign=middle;resizable=0;points=[];autosize=1;strokeColor=none;fillColor=none;" vertex="1" parent="1">
          <mxGeometry x="705" y="260" width="60" height="30" as="geometry" />
        </mxCell>
        <mxCell id="cD0qKmsjnFo0KxT0CRgl-32" value="" style="whiteSpace=wrap;html=1;" vertex="1" parent="1">
          <mxGeometry x="595" y="320" width="60" height="50" as="geometry" />
        </mxCell>
        <mxCell id="cD0qKmsjnFo0KxT0CRgl-33" value="Process" style="text;html=1;align=center;verticalAlign=middle;resizable=0;points=[];autosize=1;strokeColor=none;fillColor=none;" vertex="1" parent="1">
          <mxGeometry x="700" y="330" width="70" height="30" as="geometry" />
        </mxCell>
        <mxCell id="cD0qKmsjnFo0KxT0CRgl-34" value="" style="edgeStyle=orthogonalEdgeStyle;rounded=0;orthogonalLoop=1;jettySize=auto;html=1;endArrow=none;endFill=0;" edge="1" parent="1" source="cD0qKmsjnFo0KxT0CRgl-35">
          <mxGeometry relative="1" as="geometry">
            <mxPoint x="655" y="400" as="targetPoint" />
            <Array as="points">
              <mxPoint x="655" y="400" />
              <mxPoint x="655" y="400" />
            </Array>
          </mxGeometry>
        </mxCell>
        <mxCell id="cD0qKmsjnFo0KxT0CRgl-35" value="" style="ellipse;whiteSpace=wrap;html=1;aspect=fixed;" vertex="1" parent="1">
          <mxGeometry x="620" y="390" width="20" height="20" as="geometry" />
        </mxCell>
        <mxCell id="cD0qKmsjnFo0KxT0CRgl-36" value="HTTPS" style="text;html=1;align=center;verticalAlign=middle;resizable=0;points=[];autosize=1;strokeColor=none;fillColor=none;" vertex="1" parent="1">
          <mxGeometry x="600" y="405" width="60" height="30" as="geometry" />
        </mxCell>
        <mxCell id="cD0qKmsjnFo0KxT0CRgl-37" value="" style="edgeStyle=orthogonalEdgeStyle;rounded=0;orthogonalLoop=1;jettySize=auto;html=1;dashed=1;dashPattern=8 8;" edge="1" parent="1">
          <mxGeometry relative="1" as="geometry">
            <mxPoint x="595" y="400" as="sourcePoint" />
            <mxPoint x="620" y="399.79999999999995" as="targetPoint" />
          </mxGeometry>
        </mxCell>
        <mxCell id="cD0qKmsjnFo0KxT0CRgl-38" value="HTTPS endpoint" style="text;html=1;align=center;verticalAlign=middle;resizable=0;points=[];autosize=1;strokeColor=none;fillColor=none;" vertex="1" parent="1">
          <mxGeometry x="680" y="390" width="110" height="30" as="geometry" />
        </mxCell>
      </root>
    </mxGraphModel>
  </diagram>
</mxfile>
